<svg width="18" height="20" viewBox="0 0 18 20" fill="none" xmlns="http://www.w3.org/2000/svg">
<path d="M9 16C8.06667 16 7.175 16.146 6.325 16.438C5.475 16.7293 4.7 17.1667 4 17.75V18H14V17.75C13.3 17.1667 12.525 16.7293 11.675 16.438C10.825 16.146 9.93333 16 9 16ZM2 16.85C2.9 15.9667 3.946 15.2707 5.138 14.762C6.32933 14.254 7.61667 14 9 14C10.3833 14 11.671 14.254 12.863 14.762C14.0543 15.2707 15.1 15.9667 16 16.85V4H2V16.85ZM9 12C8.03333 12 7.20833 11.6583 6.525 10.975C5.84167 10.2917 5.5 9.46667 5.5 8.5C5.5 7.53333 5.84167 6.70833 6.525 6.025C7.20833 5.34167 8.03333 5 9 5C9.96667 5 10.7917 5.34167 11.475 6.025C12.1583 6.70833 12.5 7.53333 12.5 8.5C12.5 9.46667 12.1583 10.2917 11.475 10.975C10.7917 11.6583 9.96667 12 9 12ZM9 10C9.41667 10 9.77067 9.854 10.062 9.562C10.354 9.27067 10.5 8.91667 10.5 8.5C10.5 8.08333 10.354 7.72933 10.062 7.438C9.77067 7.146 9.41667 7 9 7C8.58333 7 8.22933 7.146 7.938 7.438C7.646 7.72933 7.5 8.08333 7.5 8.5C7.5 8.91667 7.646 9.27067 7.938 9.562C8.22933 9.854 8.58333 10 9 10ZM0 20V2H3V0H5V2H13V0H15V2H18V20H0ZM9 18H14H4H9Z" fill="#E38B29"/>
</svg>
